<?xml version="1.0" encoding="UTF-8"?>
<svg id="Layer_1" data-name="Layer 1" xmlns="http://www.w3.org/2000/svg" viewBox="0 0 512 512">
  <defs>
    <style>
      .cls-1 {
        fill: #1a1e1e;
      }

      .cls-2 {
        fill: #00b8db;
      }
    </style>
  </defs>
  <path class="cls-1" d="M402.25,512H109.75c-60.62,0-109.75-49.14-109.75-109.75V109.75C0,49.14,49.14,0,109.75,0h292.49c60.62,0,109.75,49.14,109.75,109.75v292.49c0,60.62-49.14,109.75-109.75,109.75Z"/>
  <path class="cls-2" d="M429.54,240.86c-4.74-10.64-10.79-20.32-18.14-29.04-.24-.28-.48-.56-.72-.84l6.58-133.52c.11-2.28-1.71-4.2-4-4.2h-45.1c-1.76,0-3.31,1.15-3.83,2.84l-27.55,90.5c-14.61-4.05-30.41-6.54-47.41-7.49-5.2-.31-10.52-.44-15.95-.44h-34.86c-5.51,0-10.9.13-16.18.43-16.84.87-32.45,3.17-46.83,6.88l-27.4-89.89c-.51-1.68-2.07-2.83-3.83-2.83h-45.61c-2.29,0-4.11,1.91-4,4.2l6.52,132.19c-.23.25-.44.51-.66.77-7.36,8.75-13.41,18.53-18.15,29.32-7.65,17.48-11.49,37.5-11.49,60.08,0,27.69,5.11,51.83,15.34,72.44,10.2,20.6,24.83,36.62,43.88,48.08,19.02,11.45,41.56,17.43,67.61,17.92,26.86,0,37.85.48,64.72.48h48.98c26.05-1.32,48.78-7.5,68.24-18.53,19.45-11.04,34.52-26.74,45.23-47.1,10.72-20.34,16.08-45.19,16.08-74.52,0-21.26-3.84-40.5-11.5-57.73ZM366.87,330.85c-4.12,8.16-10.72,14.01-19.77,17.55-2.92,1.14-6.12,2.08-9.62,2.81-7.37,1.56-16.04,2.22-25.99,2.01-17.99-13.73-35.98-27.46-53.98-41.19-1.42-1.08-3.38-1.1-4.81-.03-18.3,13.57-36.61,27.16-54.91,40.74-8.97.19-16.8-.44-23.48-1.95-4.26-.94-8.05-2.23-11.38-3.86-8.57-4.2-14.72-10.26-18.42-18.18-3.71-7.9-5.57-17.54-5.57-28.92,0-10.54,1.82-19.28,5.44-26.21,3.62-6.91,9.36-12.44,17.18-16.56,3.05-1.6,6.48-3.02,10.25-4.26,5.92-1.95,12.71-3.45,20.4-4.51.21-.04.4-.05.59-.08,12.5-1.68,27.75-2.52,45.77-2.52h35.36c17.55,0,32.57.95,45.09,2.84.29.03.59.08.88.13,7.54,1.18,14.22,2.76,20.04,4.75,3.99,1.36,7.57,2.9,10.74,4.65,7.82,4.28,13.51,9.75,17.06,16.44,3.53,6.67,5.31,14.69,5.31,24.1,0,13.34-2.06,24.09-6.18,32.26Z"/>
</svg>