<?xml version="1.0" encoding="UTF-8"?>
<svg id="Layer_1" data-name="Layer 1" xmlns="http://www.w3.org/2000/svg" viewBox="0 0 64 49.71">
  <defs>
    <style>
      .cls-1 {
        fill: #fbfbe6;
      }
    </style>
  </defs>
  <path class="cls-1" d="M64,0h-21.02l-.21,19.47c-.7,3.27-1.72,7.01-3.26,11.05-1.81,4.77-3.9,8.8-5.85,12.05,3.35,2.38,6.7,4.76,10.05,7.15,2.96-1.88,6.85-4.85,10.46-9.32,6.23-7.71,8.26-15.72,9.01-19.99.28-6.8.55-13.6.83-20.4Z"/>
  <path class="cls-1" d="M30.34,0H9.32c-.07,6.49-.14,12.98-.21,19.47-.7,3.27-1.72,7.01-3.26,11.05C4.04,35.29,1.95,39.31,0,42.56c3.35,2.38,6.7,4.76,10.05,7.15,2.96-1.88,6.85-4.85,10.46-9.32,6.23-7.71,8.26-15.72,9.01-19.99.28-6.8.55-13.6.83-20.4Z"/>
</svg>