<?xml version="1.0" encoding="UTF-8"?>
<svg id="Layer_1" data-name="Layer 1" xmlns="http://www.w3.org/2000/svg" viewBox="0 0 64 49.71">
  <defs>
    <style>
      .cls-1 {
        fill: #fbfbe6;
      }
    </style>
  </defs>
  <path class="cls-1" d="M0,49.71h21.02l.21-19.47c.7-3.27,1.72-7.01,3.26-11.05,1.81-4.77,3.9-8.8,5.85-12.05-3.35-2.38-6.7-4.76-10.05-7.15-2.96,1.88-6.85,4.85-10.46,9.32C3.61,17.03,1.58,25.04.83,29.31.55,36.11.28,42.91,0,49.71Z"/>
  <path class="cls-1" d="M33.66,49.71h21.02c.07-6.49.14-12.98.21-19.47.7-3.27,1.72-7.01,3.26-11.05,1.81-4.77,3.9-8.8,5.85-12.05-3.35-2.38-6.7-4.76-10.05-7.15-2.96,1.88-6.85,4.85-10.46,9.32-6.23,7.71-8.26,15.72-9.01,19.99-.28,6.8-.55,13.6-.83,20.4Z"/>
</svg>